# xmcd
#
# Track frame offsets: 
#        150
#        6764
#        17709
#        30574
#        39521
#        48767
#        56953
#        66131
#        75774
#        84971
#        93773
#        103934
#        118092
#        124008
#        134071
#
# Disc length: 1921 seconds
#
# Revision: 0
# Processed by: cddbd v1.5.1PL0 Copyright (c) Steve Scherf et al.
# Submitted via: ExactAudioCopy v0.95a5
#
DISCID=b8077f0f
DTITLE=The Dillards - Back Porch Bluegrass
DYEAR=1989
DGENRE=Bluegrass
TTITLE0=Old Joseph
TTITLE1=Somebody Touched Me
TTITLE2=Polly Vaughn
TTITLE3=Banjo In The Hollow
TTITLE4=Dooley
TTITLE5=Lonesome Indian
TTITLE6=Ground Hog
TTITLE7=Old Home Place
TTITLE8=Hickory Hollow
TTITLE9=Old Man At The Mill
TTITLE10=Doug's Tune
TTITLE11=Rainin' Here This Mornin'
TTITLE12=Cold Trailin'
TTITLE13=Reuben's Train
TTITLE14=Deulin' Banjo
EXTD=
EXTT0=
EXTT1=
EXTT2=
EXTT3=
EXTT4=
EXTT5=
EXTT6=
EXTT7=
EXTT8=
EXTT9=
EXTT10=
EXTT11=
EXTT12=
EXTT13=
EXTT14=
PLAYORDER=
